<?xml version="1.0" standalone="no"?>
<!DOCTYPE svg PUBLIC "-//W3C//DTD SVG 20010904//EN"
 "http://www.w3.org/TR/2001/REC-SVG-20010904/DTD/svg10.dtd">
<svg version="1.0" xmlns="http://www.w3.org/2000/svg"
 width="752.000000pt" height="752.000000pt" viewBox="0 0 752.000000 752.000000"
 preserveAspectRatio="xMidYMid meet">

<g transform="translate(0.000000,752.000000) scale(0.100000,-0.100000)"
fill="#000000" stroke="none">
<path d="M2897 5759 c-98 -23 -183 -92 -229 -187 l-33 -66 -3 -273 -3 -273
-154 0 -155 0 0 -1605 0 -1605 1450 0 1450 0 0 1605 0 1604 -152 3 -153 3 -5
275 c-5 263 -6 277 -28 322 -38 75 -96 134 -170 170 l-67 33 -855 2 c-479 1
-872 -3 -893 -8z m1505 -398 c74 -47 88 -88 88 -259 l0 -142 -720 0 -720 0 1
138 c1 150 9 186 54 233 56 60 38 58 671 59 l580 0 46 -29z m-462 -1115 c424
-77 743 -442 767 -876 24 -448 -281 -854 -723 -961 -116 -28 -295 -30 -408 -5
-395 90 -684 404 -737 803 -29 219 37 481 165 658 144 199 376 345 613 385 77
12 241 10 323 -4z"/>
<path d="M3653 3840 c-51 -30 -58 -53 -63 -200 l-5 -135 -136 -5 c-152 -6
-180 -16 -205 -75 -22 -53 -18 -173 6 -213 37 -61 69 -72 212 -72 l126 0 4
-139 c3 -133 4 -141 28 -167 14 -14 39 -33 57 -40 49 -21 149 -18 199 6 63 31
74 63 74 213 l0 125 138 4 c152 3 176 12 207 75 19 40 20 174 1 211 -32 61
-46 67 -200 72 l-141 5 -5 135 c-5 147 -12 170 -63 200 -25 16 -50 20 -117 20
-67 0 -92 -4 -117 -20z"/>
<path d="M1985 4935 c-173 -48 -338 -185 -419 -349 -75 -152 -70 -78 -74
-1186 -2 -667 1 -1018 8 -1064 24 -158 94 -290 209 -399 96 -91 204 -147 329
-172 l32 -7 0 1596 c0 1514 -1 1596 -17 1595 -10 0 -40 -7 -68 -14z"/>
<path d="M5470 3355 l0 -1595 28 6 c118 28 222 85 314 172 111 105 177 226
204 372 20 109 20 1980 0 2090 -48 268 -250 479 -518 544 l-28 6 0 -1595z"/>
</g>
</svg>
