<?xml version="1.0" standalone="no"?>
<!DOCTYPE svg PUBLIC "-//W3C//DTD SVG 20010904//EN"
 "http://www.w3.org/TR/2001/REC-SVG-20010904/DTD/svg10.dtd">
<svg version="1.0" xmlns="http://www.w3.org/2000/svg"
 width="752.000000pt" height="752.000000pt" viewBox="0 0 752.000000 752.000000"
 preserveAspectRatio="xMidYMid meet">

<g transform="translate(0.000000,752.000000) scale(0.100000,-0.100000)"
fill="#000000" stroke="none">
<path d="M2655 5629 c-440 -60 -809 -358 -953 -769 -50 -144 -66 -239 -65
-400 0 -205 30 -333 119 -517 52 -108 89 -154 148 -182 38 -19 61 -21 217 -21
190 0 205 4 233 59 8 15 94 218 190 452 151 366 180 428 211 455 80 71 210 71
290 0 27 -25 95 -159 341 -678 198 -417 313 -649 324 -653 9 -3 24 -3 32 0 9
4 145 243 303 533 202 372 298 538 325 564 67 65 178 75 264 24 37 -22 60 -55
195 -283 232 -391 254 -425 284 -447 27 -20 41 -21 245 -21 l217 0 54 30 c64
35 110 99 164 229 161 384 109 829 -134 1156 -177 238 -423 394 -719 456 -104
22 -322 24 -430 5 -245 -44 -453 -156 -656 -352 -45 -44 -87 -79 -94 -79 -7 0
-49 35 -94 79 -199 193 -398 301 -635 347 -98 19 -286 26 -376 13z"/>
<path d="M2872 4013 c-11 -27 -64 -154 -117 -283 -53 -129 -107 -246 -118
-258 -44 -49 -94 -65 -215 -70 -103 -4 -115 -7 -128 -27 -10 -16 -12 -29 -5
-46 5 -13 329 -343 720 -734 706 -705 711 -710 751 -710 40 0 45 5 760 720
639 639 720 723 720 750 0 50 -13 55 -142 55 -147 0 -209 13 -254 53 -20 17
-90 123 -165 249 -72 121 -137 222 -145 225 -9 3 -22 -1 -29 -8 -8 -8 -149
-261 -314 -564 -166 -302 -313 -563 -328 -579 -37 -40 -88 -59 -154 -59 -66 0
-139 31 -167 71 -10 15 -151 305 -312 645 -258 542 -296 617 -315 617 -17 0
-27 -11 -43 -47z"/>
</g>
</svg>
